<svg width="82" height="41" viewBox="0 0 82 41" fill="none" xmlns="http://www.w3.org/2000/svg">
<path d="M0.5 1.21637H22.5543V5.84477H9.83127C9.6195 5.84477 9.44958 5.94562 9.34254 6.05266C9.2355 6.1597 9.13465 6.32962 9.13465 6.54139V16.9625C9.13465 17.1743 9.23549 17.3442 9.34253 17.4513C9.44957 17.5583 9.61949 17.6592 9.83127 17.6592H21.0796V21.6977H9.83127C9.61948 21.6977 9.44956 21.7986 9.34252 21.9056C9.23549 22.0126 9.13465 22.1826 9.13465 22.3943V31.9307C9.13465 33.1186 9.39056 34.1174 9.99126 34.8109C10.6043 35.5439 11.5018 35.8716 12.6086 35.8716H22.5789V40.5H8.15996C5.46496 40.5 3.55908 39.7854 2.35967 38.475C1.14544 37.1483 0.5 35.1738 0.5 32.5205V1.21637Z" fill="#1BB45B" stroke="#269142"/>
<path d="M27.7665 38.2672L27.7638 38.2644C26.3471 36.802 25.6189 34.8466 25.6189 32.3449V8.65152C25.6189 6.17686 26.3457 4.21944 27.7651 2.7306C29.1693 1.28202 31.2352 0.5 34.0408 0.5H43.3313C46.1417 0.5 48.2042 1.25998 49.6056 2.7292L49.6083 2.73198C51.025 4.1944 51.7532 6.1498 51.7532 8.65152V12.8951H43.1186V9.53634C43.1186 8.09578 42.75 6.87551 41.981 5.88673C41.187 4.86591 40.0749 4.36648 38.686 4.36648C37.3181 4.36648 36.2116 4.86815 35.3964 5.88004L35.3964 5.87999L35.3911 5.88673C34.6215 6.8763 34.2535 8.12155 34.2535 9.53634V31.1651C34.2535 32.6071 34.6224 33.8652 35.3762 34.942C36.1617 36.0641 37.276 36.6299 38.686 36.6299C40.0748 36.6299 41.1841 36.0619 41.9911 34.9487L41.9911 34.9488L41.9959 34.942C42.7502 33.8644 43.1186 32.5814 43.1186 31.1651V26.9215H51.7532V32.3449C51.7532 34.8195 51.0264 36.7769 49.607 38.2658C48.2029 39.7144 46.137 40.4964 43.3313 40.4964H34.0408C31.2304 40.4964 29.1679 39.7364 27.7665 38.2672Z" fill="#1BB45B" stroke="#269142"/>
<path d="M77.9977 24.2139C77.5726 22.8139 77.0474 21.4632 76.4219 20.1622C75.7953 18.8589 75.0447 17.5832 74.2204 16.3843C73.3931 15.181 72.4415 14.0291 71.4154 12.9777C70.3897 11.9022 69.2626 10.9001 68.0582 10.0217C66.7148 9.0268 65.2706 8.12951 63.7495 7.37991C63.5513 7.26711 63.3432 7.29276 63.2129 7.33929C63.0885 7.3837 62.9138 7.49056 62.8295 7.69481C61.0077 11.5197 60.159 15.5446 60.159 19.5186C60.159 26.1021 62.5367 32.5344 66.8423 37.5409L66.8436 37.5423C67.8489 38.7024 67.0267 40.4999 65.5255 40.4999H63.3872C60.5775 40.4999 58.5135 39.7402 57.1115 38.2939C55.6917 36.8046 54.9653 34.8715 54.9653 32.373V8.67962C54.9653 6.20321 55.6931 4.24752 57.1102 2.78466C58.5144 1.3352 60.5807 0.552673 63.3872 0.552673H72.6778C75.4882 0.552673 77.5507 1.31266 78.9521 2.78187L78.952 2.78191L78.9575 2.78752C80.3972 4.25001 81.1242 6.17965 81.1242 8.67962V32.373C81.1242 34.7766 80.3356 37.3392 78.4516 38.7297L78.4486 38.732C78.242 38.8869 78.1444 38.9269 78.085 38.9269C78.0272 38.9269 77.9547 38.9044 77.8488 38.7886C77.7365 38.6656 77.6332 38.4868 77.525 38.2705C77.4312 38.0804 77.3374 37.8903 77.2437 37.7001C77.3692 37.7898 77.5171 37.8532 77.6718 37.8797C77.8871 37.9167 78.1599 37.8864 78.3858 37.6928L78.4004 37.6803L78.4139 37.6667C78.5771 37.5036 78.6547 37.2857 78.689 37.1547C79.5311 34.4379 79.2934 31.1522 78.9244 28.4706L78.9244 28.4705C78.7246 27.0224 78.4245 25.5949 77.9977 24.2139ZM77.9977 24.2139C77.9978 24.2143 77.998 24.2148 77.9981 24.2153L77.5197 24.3605L77.9974 24.2128C77.9975 24.2132 77.9976 24.2135 77.9977 24.2139ZM70.508 23.9557C69.7377 22.3789 68.9675 20.8023 68.1966 19.2262C71.351 23.5373 73.6196 28.464 75.5782 33.4862C75.9502 34.4709 76.3149 35.4371 76.6107 36.4156C74.5675 32.2656 72.5375 28.1101 70.508 23.9557Z" fill="#1BB45B" stroke="#269142"/>
</svg>
